<svg id="write_3550353" xmlns="http://www.w3.org/2000/svg" width="19.684" height="19.65" viewBox="0 0 19.684 19.65">
  <path id="Path_124" data-name="Path 124" d="M16.763,19.648H2.922a.624.624,0,0,0-.106-.034A3.276,3.276,0,0,1,.1,17.158c-.035-.141-.064-.283-.1-.425Q0,9.824,0,2.918a.639.639,0,0,0,.034-.106A3.261,3.261,0,0,1,3.241,0q6.6-.011,13.2,0a3.251,3.251,0,0,1,3.091,2.3c.061.2.1.406.15.609V16.732a.469.469,0,0,0-.033.087,3.215,3.215,0,0,1-2.1,2.617,6.572,6.572,0,0,1-.79.213Zm2.1-9.8q0-3.252,0-6.5A2.459,2.459,0,0,0,16.358.818Q9.843.812,3.327.818a2.457,2.457,0,0,0-2.509,2.5q-.006,6.5,0,13.006a2.457,2.457,0,0,0,2.507,2.5q6.515.007,13.031-.006a2.78,2.78,0,0,0,.918-.165,2.431,2.431,0,0,0,1.592-2.351Q18.871,13.077,18.867,9.845Z" transform="translate(0 0.001)" fill="#636060"/>
  <g id="annotate">
    <path id="Path_125" data-name="Path 125" d="M104.831,99.032c0-.4,0-.791,0-1.186a.589.589,0,0,1,.185-.454q3-2.994,6.006-5.99a.9.9,0,0,1,1.34,0c.609.6,1.213,1.207,1.817,1.812a.917.917,0,0,1-.005,1.43q-2.73,2.728-5.463,5.453a6,6,0,0,1-.516.5.754.754,0,0,1-.414.168c-.814.016-1.627.01-2.441.006a.457.457,0,0,1-.506-.516c0-.409,0-.819,0-1.229Zm6.82-3.156-1.9-1.912a.047.047,0,0,0-.025.011q-1.958,1.953-3.915,3.909a.233.233,0,0,0-.073.142c-.005.606,0,1.213,0,1.847h.242c.488,0,.976-.006,1.464,0a.468.468,0,0,0,.371-.155q1.856-1.862,3.719-3.716c.05-.049.1-.1.125-.13Zm-1.186-2.592,1.863,1.863,1.216-1.213-1.863-1.863Z" transform="translate(-99.922 -86.981)" fill="#636060"/>
    <path id="Path_126" data-name="Path 126" d="M93.909,279.45H99.15c.4,0,.617.155.623.447s-.217.464-.627.464H88.62c-.4,0-.617-.156-.623-.447s.216-.464.627-.464h5.284Z" transform="translate(-84.044 -264.664)" fill="#636060"/>
  </g>
</svg>
