<svg id="calculator_14370305" xmlns="http://www.w3.org/2000/svg" width="15.087" height="19.65" viewBox="0 0 15.087 19.65">
  <path id="Path_111" data-name="Path 111" d="M15.087,9.829v8.2a1.479,1.479,0,0,1-1.607,1.615H1.53A1.469,1.469,0,0,1,.018,18.4,1.859,1.859,0,0,1,0,18.088Q0,9.82,0,1.552A1.469,1.469,0,0,1,1.549,0q6,0,11.99,0a1.468,1.468,0,0,1,1.548,1.556q0,4.138,0,8.277ZM.619,9.805v8.258a.863.863,0,0,0,.968.962H13.5a.864.864,0,0,0,.968-.963V1.586A.866.866,0,0,0,13.49.615H1.6a.865.865,0,0,0-.978.972V9.806Z" transform="translate(0 0.005)" fill="#636060"/>
  <path id="Path_112" data-name="Path 112" d="M40.338,31.963h-4.7A.946.946,0,0,1,34.582,30.9q0-1.063,0-2.127a.943.943,0,0,1,1.02-1.028q4.737,0,9.474,0a.941.941,0,0,1,1.02,1.008q0,1.1,0,2.2a.932.932,0,0,1-1,1q-2.378,0-4.757,0Zm-.015-.621H45.08c.289,0,.395-.1.4-.4q0-1.083,0-2.166c0-.31-.107-.414-.423-.414H35.615c-.31,0-.414.107-.415.422q0,1.054,0,2.108c0,.358.089.447.442.447h4.68Z" transform="translate(-32.794 -26.311)" fill="#636060"/>
  <path id="Path_113" data-name="Path 113" d="M192.426,212.4q0-1.392,0-2.785a.827.827,0,0,1,.907-.914q.784,0,1.567,0a.822.822,0,0,1,.883.882q0,2.833,0,5.666a.83.83,0,0,1-.889.881q-.793,0-1.586,0a.83.83,0,0,1-.88-.887c0-.948,0-1.9,0-2.843Zm.619.022V215.2c0,.245.062.307.309.307q.753,0,1.507,0c.235,0,.3-.066.3-.3q0-2.8,0-5.6c0-.234-.062-.293-.3-.294q-.753,0-1.507,0c-.261,0-.311.052-.311.32v2.782Z" transform="translate(-182.482 -197.912)" fill="#636060"/>
  <path id="Path_114" data-name="Path 114" d="M37.866,289.165c0,.264,0,.528,0,.792a.866.866,0,0,1-.879.886q-.8.012-1.6,0a.862.862,0,0,1-.871-.874q-.014-.8,0-1.6a.864.864,0,0,1,.889-.875c.528,0,1.056-.006,1.584,0a.866.866,0,0,1,.881.884c0,.264,0,.528,0,.792Zm-.619,0c0-.251,0-.5,0-.754,0-.206-.091-.3-.294-.3q-.763-.005-1.527,0c-.2,0-.295.093-.3.3q-.006.753,0,1.507c0,.216.092.31.3.311q.753.005,1.507,0c.214,0,.3-.094.3-.31,0-.251,0-.5,0-.754Z" transform="translate(-32.722 -272.629)" fill="#636060"/>
  <path id="Path_115" data-name="Path 115" d="M113.589,210.32c0-.27-.006-.541,0-.811a.843.843,0,0,1,.859-.855q.811-.012,1.623,0a.839.839,0,0,1,.859.855q.013.821,0,1.642a.825.825,0,0,1-.81.841q-.859.027-1.719,0a.828.828,0,0,1-.811-.84c-.008-.276,0-.553,0-.83Zm1.684-1.05c-.257,0-.515,0-.773,0-.212,0-.291.081-.293.293q0,.763,0,1.525c0,.208.082.289.3.291q.753.007,1.506,0c.224,0,.3-.083.3-.305q0-.753,0-1.506c0-.221-.081-.3-.307-.3-.244,0-.489,0-.734,0Z" transform="translate(-107.717 -197.866)" fill="#636060"/>
  <path id="Path_116" data-name="Path 116" d="M36.144,132.927c-.258,0-.515,0-.773,0a.859.859,0,0,1-.889-.853c-.013-.547-.012-1.095,0-1.642a.849.849,0,0,1,.848-.854c.547-.017,1.095-.016,1.642,0a.859.859,0,0,1,.862.9q.005.773,0,1.546a.868.868,0,0,1-.917.9c-.258,0-.515,0-.773,0ZM35.1,131.262c0,.238,0,.477,0,.715s.086.329.322.33q.734,0,1.469,0c.24,0,.326-.085.327-.324q0-.734,0-1.469c0-.231-.085-.321-.312-.323q-.744-.005-1.488,0c-.229,0-.315.089-.318.317,0,.251,0,.5,0,.754Z" transform="translate(-32.691 -122.87)" fill="#636060"/>
  <path id="Path_117" data-name="Path 117" d="M113.6,131.23c0-.257,0-.515,0-.773a.849.849,0,0,1,.85-.888c.547-.016,1.095-.016,1.642,0a.847.847,0,0,1,.852.887c.006.528.007,1.056,0,1.584a.854.854,0,0,1-.9.879q-.773,0-1.546,0a.859.859,0,0,1-.9-.9C113.592,131.758,113.6,131.494,113.6,131.23Zm1.673,1.071c.245,0,.489,0,.734,0s.318-.078.319-.308q0-.743,0-1.487c0-.235-.08-.319-.31-.32q-.743-.005-1.487,0c-.23,0-.309.086-.31.321q0,.734,0,1.468c0,.256.076.326.339.327.238,0,.476,0,.715,0Z" transform="translate(-107.724 -122.863)" fill="#636060"/>
  <path id="Path_118" data-name="Path 118" d="M36.146,208.693c.277,0,.554-.007.83,0a.848.848,0,0,1,.839.839q.016.83,0,1.661a.835.835,0,0,1-.82.837q-.849.026-1.7,0a.838.838,0,0,1-.831-.846q-.019-.821,0-1.642a.851.851,0,0,1,.869-.851c.27-.006.541,0,.811,0h0Zm-.006.617c-.251,0-.5,0-.753,0-.218,0-.3.086-.3.306q0,.753,0,1.507c0,.2.085.292.278.295.521.006,1.043,0,1.565,0a.249.249,0,0,0,.274-.279c0-.515,0-1.03,0-1.546,0-.195-.09-.281-.286-.284-.257,0-.515,0-.773,0Z" transform="translate(-32.676 -197.906)" fill="#636060"/>
  <path id="Path_119" data-name="Path 119" d="M113.587,289.116c0-.27-.006-.541,0-.811a.851.851,0,0,1,.85-.85q.821-.015,1.642,0a.846.846,0,0,1,.848.85q.015.821,0,1.642a.844.844,0,0,1-.84.858q-.83.02-1.661,0a.849.849,0,0,1-.84-.859C113.581,289.669,113.587,289.392,113.587,289.116Zm1.691-1.044c-.251,0-.5,0-.753,0-.235,0-.318.081-.319.31q0,.753,0,1.507c0,.216.088.3.309.3q.744,0,1.488,0c.221,0,.308-.086.31-.3q0-.753,0-1.507c0-.229-.085-.308-.319-.31s-.476,0-.715,0Z" transform="translate(-107.715 -272.594)" fill="#636060"/>
  <path id="Path_120" data-name="Path 120" d="M194.052,132.909c-.258,0-.515,0-.773,0a.894.894,0,0,1-.9-.894c-.008-.508-.005-1.017,0-1.526a.89.89,0,0,1,.887-.928c.528-.017,1.057-.017,1.584,0a.888.888,0,0,1,.883.913q.012.763,0,1.526a.9.9,0,0,1-.926.91c-.251,0-.5,0-.753,0Zm-.01-.619c.245,0,.49,0,.734,0,.228,0,.334-.1.336-.329q.007-.725,0-1.449a.294.294,0,0,0-.332-.336q-.725-.007-1.449,0a.293.293,0,0,0-.335.332q0,.725,0,1.45a.29.29,0,0,0,.331.333c.238,0,.477,0,.715,0Z" transform="translate(-182.433 -122.852)" fill="#636060"/>
</svg>
