<svg id="checked_1_" data-name="checked (1)" xmlns="http://www.w3.org/2000/svg" width="16.839" height="13.167" viewBox="0 0 16.839 13.167">
  <path id="Path_135" data-name="Path 135" d="M97.2,21.873a10.969,10.969,0,0,0-1.47,1.288c-.073,0-.111.056-.156.1a22.573,22.573,0,0,0-5.707,8.259c-.058.148-.108.3-.3.3s-.24-.163-.3-.3a17.029,17.029,0,0,0-1.819-3.281,7.618,7.618,0,0,0-2.132-2.088,1,1,0,0,1-.568-.86,1.3,1.3,0,0,1,.483-1.083,1.747,1.747,0,0,1,1.937-.26,3.127,3.127,0,0,1,.62.4,8.472,8.472,0,0,1,1.731,2.038c.1.161.145.17.259.006a23.044,23.044,0,0,1,3.162-3.685c.452-.424.938-.81,1.41-1.21.542-.381,1.087-.755,1.65-1.1a17.652,17.652,0,0,1,2.136-1,12.848,12.848,0,0,1,3.116-.729c.162-.018.285.025.327.191s-.054.257-.2.327a23.7,23.7,0,0,0-4.038,2.57c-.05.038-.1.083-.143.125Z" transform="translate(-84.75 -18.655)" fill="#0fb50f"/>
</svg>
