<svg xmlns="http://www.w3.org/2000/svg" width="16.839" height="15.25" viewBox="0 0 16.839 15.25">
  <g id="cross" transform="translate(-6.17 -2.432)">
    <path id="Path_138" data-name="Path 138" d="M70.6,36.189c-.794.947-1.532,1.9-2.22,2.891a1.314,1.314,0,0,1-1.94.373,1.3,1.3,0,0,1-.226-1.925c.891-1.124,1.822-2.214,2.817-3.248a.258.258,0,0,0,.041-.375,17.675,17.675,0,0,1-1.942-4.987,1.263,1.263,0,0,1,.952-1.582,1.237,1.237,0,0,1,1.563.967A17.294,17.294,0,0,0,70.9,32.053c.034.07.069.14.11.223.457-.409.9-.816,1.353-1.209a39.032,39.032,0,0,1,9.126-6.057.858.858,0,0,1,.809-.027.74.74,0,0,1,.419.659.767.767,0,0,1-.413.737c-.556.321-1.119.629-1.67.957A36.659,36.659,0,0,0,74.3,32.242c-.657.617-1.285,1.263-1.908,1.914a.223.223,0,0,0-.023.349,13.077,13.077,0,0,0,3.755,3.47,1.135,1.135,0,0,1,.577.891,1.144,1.144,0,0,1-1.719,1.108A16.16,16.16,0,0,1,72.164,37.9a16.762,16.762,0,0,1-1.57-1.714Z" transform="translate(-59.714 -22.46)" fill="#b81b13"/>
  </g>
</svg>
