<svg xmlns="http://www.w3.org/2000/svg" width="32" height="32" viewBox="0 0 32 32">
  <g id="delet" transform="translate(-225 -591)">
    <g id="Rectangle_226" data-name="Rectangle 226" transform="translate(225 591)" fill="#e9e9e9" stroke="#c13145" stroke-width="1">
      <rect width="32" height="32" rx="4" stroke="none"/>
      <rect x="0.5" y="0.5" width="31" height="31" rx="3.5" fill="none"/>
    </g>
    <path id="Icon_fa-solid-trash-can" data-name="Icon fa-solid-trash-can" d="M4.238.555A1,1,0,0,1,5.134,0H8.908a1,1,0,0,1,.9.555L10.03,1h3.009a1,1,0,1,1,0,2.006H1A1,1,0,1,1,1,1H4.012ZM1,4.012H13.039v10.03a2.008,2.008,0,0,1-2.006,2.006H3.009A2.008,2.008,0,0,1,1,14.042ZM4.012,6.018a.5.5,0,0,0-.5.5V13.54a.5.5,0,1,0,1,0V6.519A.5.5,0,0,0,4.012,6.018Zm3.009,0a.5.5,0,0,0-.5.5V13.54a.5.5,0,1,0,1,0V6.519A.5.5,0,0,0,7.021,6.018Zm3.009,0a.5.5,0,0,0-.5.5V13.54a.5.5,0,1,0,1,0V6.519A.5.5,0,0,0,10.03,6.018Z" transform="translate(233.729 598.976)" fill="#c13145"/>
  </g>
</svg>
