<svg xmlns="http://www.w3.org/2000/svg" width="19.488" height="12" viewBox="0 0 19.488 12">
  <g id="Group_161" data-name="Group 161" transform="translate(-214 -198.245)">
    <g id="Icon_akar-more-vertical" data-name="Icon akar-more-vertical" transform="translate(233.488 198.245) rotate(90)">
      <path id="Path_108" data-name="Path 108" d="M18.5,8.5a2,2,0,1,1,2-2A2,2,0,0,1,18.5,8.5Z" transform="translate(-16.5 -4.5)" fill="#fff"/>
      <path id="Path_109" data-name="Path 109" d="M18.5,20.5a2,2,0,1,1,2-2A2,2,0,0,1,18.5,20.5Z" transform="translate(-16.5 -8.45)" fill="#fff"/>
      <path id="Path_110" data-name="Path 110" d="M18.5,32.5a2,2,0,1,1,2-2A2,2,0,0,1,18.5,32.5Z" transform="translate(-16.5 -13.012)" fill="#fff"/>
    </g>
    <g id="Icon_akar-more-vertical-2" data-name="Icon akar-more-vertical" transform="translate(233.488 206.245) rotate(90)">
      <path id="Path_108-2" data-name="Path 108" d="M18.5,8.5a2,2,0,1,1,2-2A2,2,0,0,1,18.5,8.5Z" transform="translate(-16.5 -4.5)" fill="#fff"/>
      <path id="Path_109-2" data-name="Path 109" d="M18.5,20.5a2,2,0,1,1,2-2A2,2,0,0,1,18.5,20.5Z" transform="translate(-16.5 -8.45)" fill="#fff"/>
      <path id="Path_110-2" data-name="Path 110" d="M18.5,32.5a2,2,0,1,1,2-2A2,2,0,0,1,18.5,32.5Z" transform="translate(-16.5 -13.012)" fill="#fff"/>
    </g>
  </g>
</svg>
