<svg xmlns="http://www.w3.org/2000/svg" width="24" height="24" viewBox="0 0 24 24">
  <path id="expand_2_" data-name="expand (2)" d="M4.218,0H19.777a.714.714,0,0,0,.13.041,4.67,4.67,0,0,1,4.083,4.6q.018,7.356,0,14.713a4.659,4.659,0,0,1-4.631,4.631q-7.368.022-14.736,0a4.659,4.659,0,0,1-4.438-3.4C.11,20.325.061,20.049,0,19.777V4.218a.82.82,0,0,0,.041-.13A4.609,4.609,0,0,1,3.162.265,9.27,9.27,0,0,1,4.218,0ZM17.174,7.968l.1.067v.249c0,.726-.011,1.453.007,2.178a.873.873,0,0,0,1.745.011q.014-2.331,0-4.662a.845.845,0,0,0-.841-.84q-2.342-.012-4.685,0a.873.873,0,0,0-.23,1.7,1.612,1.612,0,0,0,.44.05c.672.005,1.343,0,2.015,0,.08,0,.16.008.28.014-.093.1-.15.16-.209.219q-1.5,1.5-3,3A.878.878,0,1,0,14.031,11.2q1.513-1.5,3.014-3.015a1.028,1.028,0,0,0,.129-.222Zm-9.142,9.3-.046-.08a1.553,1.553,0,0,0,.207-.15q1-1,2-2c.347-.347.7-.689,1.041-1.046a.873.873,0,0,0-.36-1.454.884.884,0,0,0-.936.267c-1,1-2,2-2.993,3a.886.886,0,0,0-.12.225l-.1-.076v-.25c0-.679.011-1.359-.007-2.037a1.34,1.34,0,0,0-.152-.6.838.838,0,0,0-.982-.353.871.871,0,0,0-.615.849q0,2.236,0,4.473a.889.889,0,0,0,.984.985h4.4a.9.9,0,0,0,.98-.874.886.886,0,0,0-.973-.88c-.695,0-1.389,0-2.084,0H8.031Z" fill="#fff"/>
</svg>
