<svg xmlns="http://www.w3.org/2000/svg" width="9.118" height="11.962" viewBox="0 0 9.118 11.962">
  <path id="red-flag" d="M6.921,0c.265.059.534.1.793.18A5.032,5.032,0,0,1,9.045.82a.166.166,0,0,1,.07.116q0,3.168,0,6.335a.23.23,0,0,1-.01.038c-.051-.033-.1-.063-.145-.1a5.8,5.8,0,0,0-1.343-.72,2.73,2.73,0,0,0-2.25.142c-.455.229-.9.479-1.356.705a3.412,3.412,0,0,1-1.67.371,4.136,4.136,0,0,1-1.515-.4l-.1-.042a.08.08,0,0,0-.023,0v4.685H0V0H.7C.7.257.7.514.7.771A.116.116,0,0,0,.776.9c.209.094.413.2.625.287a2.683,2.683,0,0,0,2.241-.055C3.916,1,4.183.855,4.45.711A6.06,6.06,0,0,1,5.668.155C5.9.089,6.144.051,6.383,0ZM8.407,6.057a.226.226,0,0,0,.009-.041q0-2.349,0-4.7a.143.143,0,0,0-.067-.1c-.147-.079-.3-.153-.449-.222a2.8,2.8,0,0,0-2.585.059c-.379.2-.754.406-1.134.6a3.654,3.654,0,0,1-1.8.45A4.146,4.146,0,0,1,.813,1.7L.7,1.651V2.4q0,1.981,0,3.962a.15.15,0,0,0,.1.162c.131.059.258.127.389.188a2.832,2.832,0,0,0,2.65-.055q.506-.268,1.008-.541a3.522,3.522,0,0,1,3.125-.237c.147.058.292.121.442.182Z" fill="#636060"/>
</svg>
