<svg id="Group_147" data-name="Group 147" xmlns="http://www.w3.org/2000/svg" width="19.684" height="19.65" viewBox="0 0 19.684 19.65">
  <path id="Path_127" data-name="Path 127" d="M16.763,19.648H2.922a.624.624,0,0,0-.106-.034A3.276,3.276,0,0,1,.1,17.158c-.035-.141-.064-.283-.1-.425Q0,9.824,0,2.918a.639.639,0,0,0,.034-.106A3.261,3.261,0,0,1,3.241,0q6.6-.011,13.2,0a3.251,3.251,0,0,1,3.091,2.3c.061.2.1.406.15.609V16.732a.469.469,0,0,0-.033.087,3.215,3.215,0,0,1-2.1,2.617,6.572,6.572,0,0,1-.79.213Zm2.1-9.8q0-3.252,0-6.5A2.459,2.459,0,0,0,16.358.818Q9.843.812,3.327.818a2.457,2.457,0,0,0-2.509,2.5q-.006,6.5,0,13.006a2.457,2.457,0,0,0,2.507,2.5q6.515.007,13.031-.006a2.78,2.78,0,0,0,.918-.165,2.431,2.431,0,0,0,1.592-2.351Q18.871,13.077,18.867,9.845Z" transform="translate(0 0.001)" fill="#636060"/>
  <path id="red-flag" d="M6.921,0c.265.059.534.1.793.18A5.032,5.032,0,0,1,9.045.82a.166.166,0,0,1,.07.116q0,3.168,0,6.335a.23.23,0,0,1-.01.038c-.051-.033-.1-.063-.145-.1a5.8,5.8,0,0,0-1.343-.72,2.73,2.73,0,0,0-2.25.142c-.455.229-.9.479-1.356.705a3.412,3.412,0,0,1-1.67.371,4.136,4.136,0,0,1-1.515-.4l-.1-.042a.08.08,0,0,0-.023,0v4.685H0V0H.7C.7.257.7.514.7.771A.116.116,0,0,0,.776.9c.209.094.413.2.625.287a2.683,2.683,0,0,0,2.241-.055C3.916,1,4.183.855,4.45.711A6.06,6.06,0,0,1,5.668.155C5.9.089,6.144.051,6.383,0ZM8.407,6.057a.226.226,0,0,0,.009-.041q0-2.349,0-4.7a.143.143,0,0,0-.067-.1c-.147-.079-.3-.153-.449-.222a2.8,2.8,0,0,0-2.585.059c-.379.2-.754.406-1.134.6a3.654,3.654,0,0,1-1.8.45A4.146,4.146,0,0,1,.813,1.7L.7,1.651V2.4q0,1.981,0,3.962a.15.15,0,0,0,.1.162c.131.059.258.127.389.188a2.832,2.832,0,0,0,2.65-.055q.506-.268,1.008-.541a3.522,3.522,0,0,1,3.125-.237c.147.058.292.121.442.182Z" transform="translate(5.702 3.381)" fill="#636060"/>
</svg>
