<svg id="Group_1411" data-name="Group 1411" xmlns="http://www.w3.org/2000/svg" width="19.684" height="19.65" viewBox="0 0 19.684 19.65">
  <path id="Path_127" data-name="Path 127" d="M16.763,19.648H2.922a.624.624,0,0,0-.106-.034A3.276,3.276,0,0,1,.1,17.158c-.035-.141-.064-.283-.1-.425Q0,9.824,0,2.918a.639.639,0,0,0,.034-.106A3.261,3.261,0,0,1,3.241,0q6.6-.011,13.2,0a3.251,3.251,0,0,1,3.091,2.3c.061.2.1.406.15.609V16.732a.469.469,0,0,0-.033.087,3.215,3.215,0,0,1-2.1,2.617,6.572,6.572,0,0,1-.79.213Zm2.1-9.8q0-3.252,0-6.5A2.459,2.459,0,0,0,16.358.818Q9.843.812,3.327.818a2.457,2.457,0,0,0-2.509,2.5q-.006,6.5,0,13.006a2.457,2.457,0,0,0,2.507,2.5q6.515.007,13.031-.006a2.78,2.78,0,0,0,.918-.165,2.431,2.431,0,0,0,1.592-2.351Q18.871,13.077,18.867,9.845Z" transform="translate(0 0.001)" fill="#636060"/>
  <g id="link_3730553" transform="translate(3.895 3.228)">
    <path id="Path_121" data-name="Path 121" d="M-.01,1.638C0,1.6.02,1.566.033,1.529a.757.757,0,0,1,.694-.516c.258-.007.517,0,.794,0,0-.075,0-.141,0-.207a.779.779,0,0,1,.69-.772A4.219,4.219,0,0,1,5.464.944a.194.194,0,0,0,.281,0A4.25,4.25,0,0,1,8.511-.007a4.054,4.054,0,0,1,.535.05.76.76,0,0,1,.631.723c0,.075,0,.15,0,.237.054,0,.1.006.138.006.223,0,.447,0,.669,0a.752.752,0,0,1,.723.721c0,.04,0,.08,0,.119V6.779c0,.228-.085.347-.25.35s-.258-.12-.258-.355V1.862c0-.262-.081-.343-.342-.343h-.68v3.7c0,.036,0,.072,0,.108a.254.254,0,1,1-.507-.007c0-.036,0-.072,0-.108V.874c0-.234-.069-.309-.3-.34a3.722,3.722,0,0,0-2.952.922.239.239,0,0,0-.059.166c0,1.032,0,2.064,0,3.1,0,.044,0,.088,0,.131a.244.244,0,0,1-.25.237.25.25,0,0,1-.254-.235c0-.04,0-.08,0-.119,0-1.04,0-2.08,0-3.12a.232.232,0,0,0-.064-.163,3.925,3.925,0,0,0-2-.92A3.717,3.717,0,0,0,2.266.54a.264.264,0,0,0-.237.283c0,.2,0,.406,0,.609V6.679c0,.3.1.378.4.351a3.963,3.963,0,0,1,2.027.335.255.255,0,1,1-.205.465,3.5,3.5,0,0,0-1.83-.287.766.766,0,0,1-.884-.632,1.379,1.379,0,0,1-.01-.2q0-2.516,0-5.032V1.521c-.272,0-.538-.008-.8,0a.227.227,0,0,0-.21.2.659.659,0,0,0-.01.131q0,2.976,0,5.953a.511.511,0,0,0,.038.208c.054.118.166.132.284.131q1.925,0,3.849,0c.056,0,.112,0,.167,0a.255.255,0,0,1,0,.51c-.04,0-.08,0-.119,0H.932A.813.813,0,0,1-.01,8.021Q-.01,4.831-.01,1.638Z" transform="translate(0.01 0.009)" fill="#636060"/>
    <path id="Path_122" data-name="Path 122" d="M255.442,239.777a2.079,2.079,0,0,1-.994-.51c-.032-.03-.065-.059-.1-.091a.255.255,0,1,1,.351-.369,3.621,3.621,0,0,0,.334.27.989.989,0,0,0,1.564-.767.938.938,0,0,0-.275-.763c-.565-.573-1.132-1.144-1.708-1.707a1,1,0,0,0-1.244-.121.256.256,0,1,1-.276-.427,1.506,1.506,0,0,1,1.863.169c.588.573,1.172,1.15,1.74,1.742a1.425,1.425,0,0,1,.335,1.518,1.5,1.5,0,0,1-1.167,1.034c-.023.005-.045.014-.067.021h-.359Z" transform="translate(-244.873 -227.538)" fill="#636060"/>
    <path id="Path_123" data-name="Path 123" d="M176.991,175.42a1.516,1.516,0,0,1,.959.346,2.922,2.922,0,0,1,.306.266.255.255,0,0,1,0,.374.243.243,0,0,1-.362-.014,1.629,1.629,0,0,0-.693-.428.993.993,0,0,0-1.184.773.965.965,0,0,0,.256.915q.845.861,1.706,1.707a.988.988,0,0,0,1.192.155c.032-.017.061-.037.093-.054a.251.251,0,0,1,.343.089.246.246,0,0,1-.082.345,1.454,1.454,0,0,1-.678.246,1.493,1.493,0,0,1-1.251-.44c-.56-.555-1.121-1.11-1.672-1.674a1.444,1.444,0,0,1-.37-1.52,1.489,1.489,0,0,1,1.17-1.059,2.206,2.206,0,0,1,.261-.027Z" transform="translate(-169.875 -169.816)" fill="#636060"/>
  </g>
</svg>
